# xmcd CD database file
#
# Track frame offsets:
#	150
#	22142
#	38259
#	48835
#	68867
#	79292
#	89034
#	109733
#	119961
#	134118
#	157672
#	182324
#	195002
#	220923
#	244210
#
# Disc length: 3622 seconds
#
# Revision: 1
# Processed by: cddbd v1.5.1PL0 Copyright (c) Steve Scherf et al.
# Submitted via: CDex 1.60beta1
#
DISCID=cc0e240f
DTITLE=東方アレンジ・耳コピスレッドＣＤ企画 - 恋色音楽祭～Magical Concert 星符
DYEAR=2005
DGENRE=Soundtrack
TTITLE0=魔跳。
TTITLE1=Rhapsody "a stellar vessel"
TTITLE2=星の円舞～Waltz of Star
TTITLE3=星の欠片 ～ Last moments of star
TTITLE4=KMS440
TTITLE5=三角フラスコ -alchemist-
TTITLE6=スーパーマリサシスターズ オリジナルサウンドトラック
TTITLE7=恋色ChipStar
TTITLE8=スーパーマリサワールドメドレー
TTITLE9=謳歌「散り逝く花」  
TTITLE10=Dancing MasterSpark with Violin
TTITLE11=鈍色シュート・ザ・ムーン 
TTITLE12=恋色魔砲
TTITLE13=暁のマスタースパーク
TTITLE14=オケ色マスター行進曲 
EXTD=YEAR: 2005
EXTT0=
EXTT1=
EXTT2=
EXTT3=
EXTT4=
EXTT5=
EXTT6=
EXTT7=
EXTT8=
EXTT9=
EXTT10=
EXTT11=
EXTT12=
EXTT13=
EXTT14=
PLAYORDER=
